Coordinates
version=1
nRows=19
nColumns=24
inDegrees=yes

Units are S.I. units (second, meters, Newtons, ...)
Angles are in degrees.

endheader
time	pelvis_tilt	pelvis_list	pelvis_rotation	pelvis_tx	pelvis_ty	pelvis_tz	hip_flexion_r	hip_adduction_r	hip_rotation_r	knee_angle_r	ankle_angle_r	subtalar_angle_r	mtp_angle_r	hip_flexion_l	hip_adduction_l	hip_rotation_l	knee_angle_l	ankle_angle_l	subtalar_angle_l	mtp_angle_l	lumbar_extension	lumbar_bending	lumbar_rotation
      1.20016667	     -9.79631117	     -2.41731926	     -6.68813552	      0.07902118	      1.01665255	      0.34074545	     -7.91668204	      3.94678828	      2.15057525	    -10.69420177	     19.73279233	      2.46956704	      3.41455706	     39.35927571	     -6.45918517	     -2.00726758	     -9.75990746	     10.22966550	      6.40938827	      2.15913444	      1.62325528	      7.03672364	      3.72708545
      1.20433333	     -9.79097812	     -2.35136440	     -6.78080852	      0.08535198	      1.01610929	      0.34028170	     -8.04947564	      3.75778802	      2.01289134	    -11.15324022	     19.60742616	      2.80869038	      3.70550027	     39.31134448	     -6.33739305	     -1.77927010	    -10.32632468	      9.89076958	      6.27205814	      2.25923248	      1.68225661	      6.90288632	      3.78566777
      1.20850000	     -9.79911543	     -2.27667050	     -6.87474239	      0.09172343	      1.01560381	      0.33980162	     -8.15311336	      3.55693642	      1.87939273	    -11.63867130	     19.44630899	      3.13417194	      4.09291577	     39.27206780	     -6.20971488	     -1.57637907	    -10.88858049	      9.50434473	      6.11736686	      2.38051610	      1.76636300	      6.76165090	      3.84816260
      1.21266667	     -9.80552101	     -2.19733766	     -6.96347633	      0.09815085	      1.01516398	      0.33934399	     -8.26241138	      3.35431645	      1.78103938	    -12.11191994	     19.19720598	      3.42420655	      4.43879285	     39.22394127	     -6.08062854	     -1.40023268	    -11.43922652	      9.06362670	      5.99983047	      2.47524780	      1.85667058	      6.59445103	      3.88549101
      1.21683333	     -9.78085838	     -2.11843587	     -7.04715963	      0.10455302	      1.01483862	      0.33883864	     -8.38139380	      3.14550699	      1.69103481	    -12.61875718	     18.86907441	      3.54918695	      7.99527852	     39.14152949	     -5.94251592	     -1.21272191	    -11.98255989	      8.54629369	      5.72057901	      3.39009923	      1.89190040	      6.46389569	      3.85362995
      1.22100000	     -9.80707008	     -2.03777909	     -7.13536315	      0.11101770	      1.01446655	      0.33834494	     -8.42936141	      2.93657629	      1.58478113	    -13.16429766	     18.55204815	      3.85435370	      8.05436791	     39.13933754	     -5.82465723	     -1.13655803	    -12.59119257	      8.11832213	      5.67013313	      3.38774995	      2.01527876	      6.30177655	      3.94080225
      1.22516667	     -9.78965929	     -1.93623967	     -7.21345584	      0.11747769	      1.01422242	      0.33778805	     -8.48157635	      2.69067570	      1.39699350	    -13.78886260	     18.28708258	      4.20515732	      8.21793246	     39.08140784	     -5.67131881	     -1.02783906	    -13.17611556	      7.62502534	      5.41248426	      3.38881759	      2.08538778	      6.13684366	      3.99435087
      1.22933333	     -9.80182910	     -1.83412540	     -7.29048774	      0.12398301	      1.01401337	      0.33726341	     -8.51149911	      2.45653630	      1.31045978	    -14.38335814	     17.88272322	      4.44828180	      8.36638453	     39.05605217	     -5.52832332	     -0.94753752	    -13.76360913	      7.10536995	      5.24067111	      3.38561155	      2.19591490	      5.94197866	      4.00800377
      1.23350000	     -9.79622727	     -1.71922064	     -7.35535475	      0.13046935	      1.01386419	      0.33664761	     -8.50256974	      2.19188989	      1.09828089	    -15.09134471	     17.55404151	      4.79768810	      8.69110362	     39.02138761	     -5.35699405	     -0.83345722	    -14.36954263	      6.60052057	      4.88708534	      3.38303347	      2.29141577	      5.76513568	      4.04634003
      1.23766667	     -9.78475269	     -1.61716294	     -7.41260271	      0.13697034	      1.01380862	      0.33604038	     -8.50588236	      1.94860761	      0.97530196	    -15.76384323	     16.99474087	      4.95166291	     12.69475858	     38.98719550	     -5.20123930	     -0.74417239	    -14.98915748	      6.09632219	      4.62998496	      3.40298961	      2.36964304	      5.59520353	      4.03431390
      1.24183333	     -9.76238277	     -1.50399677	     -7.47583632	      0.14351805	      1.01383696	      0.33545348	     -8.50156643	      1.69309634	      0.87567508	    -16.47461356	     16.44897076	      5.12053423	     12.72031559	     38.95531276	     -5.05377376	     -0.77244727	    -15.64898516	      5.67423183	      4.50905958	      3.39172488	      2.45957663	      5.40925412	      4.03486145
      1.24600000	     -9.76864026	     -1.35675441	     -7.52210812	      0.15002734	      1.01383643	      0.33477163	     -8.39564730	      1.38758778	      0.64307366	    -17.32213587	     16.04146178	      5.52561939	     12.89621072	     38.95099297	     -4.84902469	     -0.67602520	    -16.29602271	      5.22280033	      4.14759571	      3.36415396	      2.56310005	      5.16890831	      4.07258064
      1.25016667	     -9.73782752	     -1.21310662	     -7.55516817	      0.15655804	      1.01396177	      0.33408272	     -8.32386305	      1.08740220	      0.45061311	    -18.16669546	     15.50752366	      5.80223425	     13.15673273	     38.91324800	     -4.64572685	     -0.62836391	    -16.95639107	      4.81540428	      3.88125445	      3.32622478	      2.63875425	      4.93334743	      4.06910426
      1.25433333	     -9.70089026	     -1.08380267	     -7.59114470	      0.16306429	      1.01417710	      0.33338766	     -8.23772830	      0.80376679	      0.30988165	    -19.02842930	     14.81732840	      5.94392435	     16.71563773	     38.86835103	     -4.45746063	     -0.57641543	    -17.62032103	      4.43378320	      3.61973243	      2.88397402	      2.69129546	      4.73053542	      4.04832916
      1.25850000	     -9.67147387	     -0.93451326	     -7.60543184	      0.16960322	      1.01438948	      0.33265375	     -8.10384712	      0.49518315	      0.09877629	    -19.97556052	     14.21208115	      6.21064601	     16.78879038	     38.84621042	     -4.24561056	     -0.57021445	    -18.31957300	      4.16930898	      3.46545584	      2.86564406	      2.77438349	      4.48337979	      4.05016626
      1.26266667	     -9.62918933	     -0.78696795	     -7.61947724	      0.17609593	      1.01468499	      0.33188953	     -7.94985946	      0.18360318	     -0.09708929	    -20.97070667	     13.56243799	      6.48947755	     17.01492352	     38.79888903	     -4.02579127	     -0.52225196	    -18.99357324	      3.89682944	      3.20447826	      2.81808075	      2.82806476	      4.24724828	      4.04599151
      1.26683333	     -9.57756762	     -0.63474206	     -7.61506094	      0.18260793	      1.01504818	      0.33114400	     -7.79227884	     -0.12161955	     -0.25484096	    -21.98056833	     12.81632473	      6.61464317	     17.11944940	     38.73810488	     -3.80062752	     -0.51584466	    -19.65929667	      3.67601364	      3.11614602	      2.79321310	      2.87528009	      3.97929595	      4.01497732
      1.27100000	     -9.52281825	     -0.46642831	     -7.60567950	      0.18905281	      1.01541529	      0.33030514	     -7.56984894	     -0.46825001	     -0.51635774	    -23.11557757	     12.18575539	      6.95456356	     17.55751837	     38.66955487	     -3.54061123	     -0.45974149	    -20.31384324	      3.46827414	      2.81192727	      2.70123084	      2.91702623	      3.71915620	      4.01547431
      1.27516667	     -9.44728768	     -0.30439315	     -7.58599393	      0.19549015	      1.01589548	      0.32949672	     -7.35978013	     -0.79548627	     -0.70549956	    -24.24036318	     11.32095498	      7.00564018	     21.46046512	     38.55474362	     -3.28625399	     -0.42766116	    -20.91468749	      3.29570561	      2.68653760	      1.88381568	      2.93186761	      3.46475944	      3.98124511
